<svg width="128" height="127" viewBox="0 0 128 127" fill="none" xmlns="http://www.w3.org/2000/svg">
<path d="M73.3334 10.5833H54.6667C51.715 10.5834 48.8669 11.6629 46.6669 13.6153C44.4669 15.5678 43.0693 18.2562 42.7414 21.1667H33.3334C30.1508 21.1667 27.0985 22.4211 24.8481 24.6539C22.5977 26.8868 21.3334 29.9152 21.3334 33.0729V104.51C21.3334 107.668 22.5977 110.697 24.8481 112.929C27.0985 115.162 30.1508 116.417 33.3334 116.417H94.6667C96.2426 116.417 97.803 116.109 99.2589 115.51C100.715 114.912 102.038 114.035 103.152 112.929C104.266 111.824 105.15 110.511 105.753 109.067C106.356 107.622 106.667 106.074 106.667 104.51V33.0729C106.667 31.5094 106.356 29.9611 105.753 28.5166C105.15 27.0721 104.266 25.7595 103.152 24.6539C102.038 23.5483 100.715 22.6713 99.2589 22.073C97.803 21.4746 96.2426 21.1667 94.6667 21.1667H85.2587C84.9307 18.2562 83.5332 15.5678 81.3331 13.6153C79.1331 11.6629 76.285 10.5834 73.3334 10.5833ZM54.6667 18.5208H73.3334C74.3942 18.5208 75.4117 18.939 76.1618 19.6833C76.9119 20.4275 77.3334 21.437 77.3334 22.4896C77.3334 23.5422 76.9119 24.5516 76.1618 25.2959C75.4117 26.0402 74.3942 26.4583 73.3334 26.4583H54.6667C53.6058 26.4583 52.5884 26.0402 51.8383 25.2959C51.0881 24.5516 50.6667 23.5422 50.6667 22.4896C50.6667 21.437 51.0881 20.4275 51.8383 19.6833C52.5884 18.939 53.6058 18.5208 54.6667 18.5208ZM66.6667 54.2396C66.6667 53.187 67.0881 52.1776 67.8383 51.4333C68.5884 50.689 69.6058 50.2708 70.6667 50.2708H89.3334C90.3942 50.2708 91.4117 50.689 92.1618 51.4333C92.9119 52.1776 93.3334 53.187 93.3334 54.2396C93.3334 55.2922 92.9119 56.3016 92.1618 57.0459C91.4117 57.7902 90.3942 58.2083 89.3334 58.2083H70.6667C69.6058 58.2083 68.5884 57.7902 67.8383 57.0459C67.0881 56.3016 66.6667 55.2922 66.6667 54.2396ZM70.6667 79.375H89.3334C90.3942 79.375 91.4117 79.7932 92.1618 80.5374C92.9119 81.2817 93.3334 82.2912 93.3334 83.3438C93.3334 84.3963 92.9119 85.4058 92.1618 86.1501C91.4117 86.8944 90.3942 87.3125 89.3334 87.3125H70.6667C69.6058 87.3125 68.5884 86.8944 67.8383 86.1501C67.0881 85.4058 66.6667 84.3963 66.6667 83.3438C66.6667 82.2912 67.0881 81.2817 67.8383 80.5374C68.5884 79.7932 69.6058 79.375 70.6667 79.375ZM57.4934 51.7525L46.8267 62.3358C46.0767 63.0791 45.06 63.4965 44 63.4965C42.94 63.4965 41.9234 63.0791 41.1734 62.3358L35.84 57.0442C35.447 56.6808 35.1318 56.2427 34.9132 55.7559C34.6946 55.269 34.577 54.7435 34.5676 54.2106C34.5581 53.6777 34.6569 53.1484 34.8581 52.6542C35.0592 52.16 35.3587 51.7111 35.7385 51.3343C36.1183 50.9574 36.5708 50.6603 37.0689 50.4607C37.5669 50.2611 38.1004 50.1631 38.6375 50.1725C39.1746 50.1819 39.7042 50.2985 40.1949 50.5154C40.6856 50.7323 41.1272 51.0451 41.4934 51.435L44 53.9221L51.84 46.1433C52.2062 45.7534 52.6478 45.4407 53.1385 45.2238C53.6292 45.0068 54.1588 44.8902 54.6959 44.8808C55.233 44.8714 55.7665 44.9694 56.2646 45.169C56.7626 45.3686 57.2151 45.6657 57.5949 46.0426C57.9747 46.4195 58.2742 46.8684 58.4754 47.3626C58.6765 47.8567 58.7753 48.3861 58.7659 48.9189C58.7564 49.4518 58.6388 49.9774 58.4202 50.4642C58.2016 50.951 57.8864 51.3892 57.4934 51.7525ZM57.4934 75.2475C58.2424 75.9917 58.6632 77.0004 58.6632 78.0521C58.6632 79.1038 58.2424 80.1125 57.4934 80.8567L46.8267 91.44C46.0767 92.1832 45.06 92.6007 44 92.6007C42.94 92.6007 41.9234 92.1832 41.1734 91.44L35.84 86.1484C35.447 85.785 35.1318 85.3469 34.9132 84.86C34.6946 84.3732 34.577 83.8477 34.5676 83.3148C34.5581 82.7819 34.6569 82.2526 34.8581 81.7584C35.0592 81.2642 35.3587 80.8153 35.7385 80.4384C36.1183 80.0616 36.5708 79.7645 37.0689 79.5649C37.5669 79.3653 38.1004 79.2672 38.6375 79.2766C39.1746 79.286 39.7042 79.4027 40.1949 79.6196C40.6856 79.8365 41.1272 80.1493 41.4934 80.5392L44 83.0263L51.84 75.2475C52.59 74.5043 53.6067 74.0868 54.6667 74.0868C55.7267 74.0868 56.7434 74.5043 57.4934 75.2475Z" fill="#1B4FA6"/>
</svg>
