<svg width="120" height="27" viewBox="0 0 120 27" fill="none" xmlns="http://www.w3.org/2000/svg">
<path d="M67.8239 9.90909H65.1392V6.77273H62.5909V9.90909H60.6733V11.9545H62.5909V19.6847C62.5824 22.0625 64.3977 23.2131 66.4091 23.1705C67.2188 23.1619 67.7642 23.0085 68.0625 22.8977L67.6023 20.7926C67.4318 20.8267 67.1165 20.9034 66.7074 20.9034C65.8807 20.9034 65.1392 20.6307 65.1392 19.1562V11.9545H67.8239V9.90909ZM76.0163 23.2642C79.7067 23.2642 82.1186 20.5625 82.1186 16.5142C82.1186 12.4403 79.7067 9.73864 76.0163 9.73864C72.326 9.73864 69.9141 12.4403 69.9141 16.5142C69.9141 20.5625 72.326 23.2642 76.0163 23.2642ZM76.0249 21.125C73.6129 21.125 72.4879 19.0199 72.4879 16.5057C72.4879 14 73.6129 11.8693 76.0249 11.8693C78.4197 11.8693 79.5447 14 79.5447 16.5057C79.5447 19.0199 78.4197 21.125 76.0249 21.125ZM89.8636 23.2557C92.25 23.2557 93.1875 21.7983 93.6477 20.9631H93.8608V23H96.3494V5.54545H93.8011V12.0312H93.6477C93.1875 11.2216 92.3182 9.73864 89.8807 9.73864C86.7188 9.73864 84.392 12.2358 84.392 16.4801C84.392 20.7159 86.6847 23.2557 89.8636 23.2557ZM90.4261 21.0824C88.1506 21.0824 86.9659 19.0795 86.9659 16.4545C86.9659 13.8551 88.125 11.9034 90.4261 11.9034C92.6506 11.9034 93.8438 13.7188 93.8438 16.4545C93.8438 19.2074 92.625 21.0824 90.4261 21.0824ZM105.501 23.2642C109.191 23.2642 111.603 20.5625 111.603 16.5142C111.603 12.4403 109.191 9.73864 105.501 9.73864C101.81 9.73864 99.3984 12.4403 99.3984 16.5142C99.3984 20.5625 101.81 23.2642 105.501 23.2642ZM105.509 21.125C103.097 21.125 101.972 19.0199 101.972 16.5057C101.972 14 103.097 11.8693 105.509 11.8693C107.904 11.8693 109.029 14 109.029 16.5057C109.029 19.0199 107.904 21.125 105.509 21.125Z" fill="#4285F4"/>
<path d="M67.8239 9.90909H68.8239V8.90909H67.8239V9.90909ZM65.1392 9.90909H64.1392V10.9091H65.1392V9.90909ZM65.1392 6.77273H66.1392V5.77273H65.1392V6.77273ZM62.5909 6.77273V5.77273H61.5909V6.77273H62.5909ZM62.5909 9.90909V10.9091H63.5909V9.90909H62.5909ZM60.6733 9.90909V8.90909H59.6733V9.90909H60.6733ZM60.6733 11.9545H59.6733V12.9545H60.6733V11.9545ZM62.5909 11.9545H63.5909V10.9545H62.5909V11.9545ZM62.5909 19.6847L63.5909 19.6882V19.6847H62.5909ZM66.4091 23.1705L66.3986 22.1705L66.3879 22.1707L66.4091 23.1705ZM68.0625 22.8977L68.4107 23.8352L69.2249 23.5327L69.0394 22.6841L68.0625 22.8977ZM67.6023 20.7926L68.5792 20.579L68.3694 19.6194L67.4062 19.812L67.6023 20.7926ZM65.1392 11.9545V10.9545H64.1392V11.9545H65.1392ZM67.8239 11.9545V12.9545H68.8239V11.9545H67.8239ZM67.8239 8.90909H65.1392V10.9091H67.8239V8.90909ZM66.1392 9.90909V6.77273H64.1392V9.90909H66.1392ZM65.1392 5.77273H62.5909V7.77273H65.1392V5.77273ZM61.5909 6.77273V9.90909H63.5909V6.77273H61.5909ZM62.5909 8.90909H60.6733V10.9091H62.5909V8.90909ZM59.6733 9.90909V11.9545H61.6733V9.90909H59.6733ZM60.6733 12.9545H62.5909V10.9545H60.6733V12.9545ZM61.5909 11.9545V19.6847H63.5909V11.9545H61.5909ZM61.5909 19.6811C61.5856 21.1504 62.1562 22.3248 63.1071 23.1074C64.0334 23.8697 65.239 24.1955 66.4303 24.1702L66.3879 22.1707C65.5678 22.1881 64.8601 21.9599 64.378 21.5631C63.9205 21.1865 63.5876 20.5968 63.5909 19.6882L61.5909 19.6811ZM66.4196 24.1704C67.3556 24.1605 68.0151 23.9821 68.4107 23.8352L67.7143 21.9603C67.5133 22.035 67.0819 22.1633 66.3986 22.1705L66.4196 24.1704ZM69.0394 22.6841L68.5792 20.579L66.6253 21.0062L67.0856 23.1113L69.0394 22.6841ZM67.4062 19.812C67.208 19.8517 66.9974 19.9034 66.7074 19.9034V21.9034C67.2355 21.9034 67.6557 21.8017 67.7984 21.7732L67.4062 19.812ZM66.7074 19.9034C66.369 19.9034 66.2826 19.8397 66.2716 19.83C66.2701 19.8287 66.2422 19.8067 66.2107 19.7176C66.1762 19.6201 66.1392 19.4456 66.1392 19.1562H64.1392C64.1392 20.0443 64.3635 20.8182 64.955 21.3355C65.5213 21.8308 66.2191 21.9034 66.7074 21.9034V19.9034ZM66.1392 19.1562V11.9545H64.1392V19.1562H66.1392ZM65.1392 12.9545H67.8239V10.9545H65.1392V12.9545ZM68.8239 11.9545V9.90909H66.8239V11.9545H68.8239ZM76.0163 24.2642C78.1195 24.2642 79.9241 23.4867 81.1943 22.0766C82.4555 20.6766 83.1186 18.7342 83.1186 16.5142H81.1186C81.1186 18.3425 80.5758 19.7751 79.7084 20.738C78.85 21.6909 77.6035 22.2642 76.0163 22.2642V24.2642ZM83.1186 16.5142C83.1186 14.2829 82.4564 12.3342 81.1952 10.9304C79.9248 9.51628 78.1196 8.73864 76.0163 8.73864V10.7386C77.6034 10.7386 78.8493 11.3118 79.7075 12.267C80.5749 13.2326 81.1186 14.6716 81.1186 16.5142H83.1186ZM76.0163 8.73864C73.913 8.73864 72.1079 9.51628 70.8374 10.9304C69.5763 12.3342 68.9141 14.2829 68.9141 16.5142H70.9141C70.9141 14.6716 71.4578 13.2326 72.3252 12.267C73.1833 11.3118 74.4293 10.7386 76.0163 10.7386V8.73864ZM68.9141 16.5142C68.9141 18.7342 69.5772 20.6766 70.8383 22.0766C72.1085 23.4867 73.9132 24.2642 76.0163 24.2642V22.2642C74.4292 22.2642 73.1826 21.6909 72.3243 20.738C71.4569 19.7751 70.9141 18.3425 70.9141 16.5142H68.9141ZM76.0249 20.125C75.1569 20.125 74.5755 19.7679 74.1737 19.1884C73.7429 18.5669 73.4879 17.6327 73.4879 16.5057H71.4879C71.4879 17.8928 71.7955 19.2683 72.5301 20.3279C73.2938 21.4295 74.4809 22.125 76.0249 22.125V20.125ZM73.4879 16.5057C73.4879 15.3834 73.7427 14.4434 74.1754 13.8152C74.5795 13.2286 75.1617 12.8693 76.0249 12.8693V10.8693C74.4761 10.8693 73.2898 11.5754 72.5284 12.6805C71.7957 13.7441 71.4879 15.1223 71.4879 16.5057H73.4879ZM76.0249 12.8693C76.8768 12.8693 77.4551 13.2262 77.8584 13.8138C78.29 14.4426 78.5447 15.3835 78.5447 16.5057H80.5447C80.5447 15.1222 80.237 13.7449 79.5073 12.682C78.7494 11.5777 77.5678 10.8693 76.0249 10.8693V12.8693ZM78.5447 16.5057C78.5447 17.6327 78.2898 18.5677 77.8601 19.1898C77.4592 19.7703 76.8816 20.125 76.0249 20.125V22.125C77.563 22.125 78.7454 21.4272 79.5057 20.3265C80.2372 19.2675 80.5447 17.8929 80.5447 16.5057H78.5447ZM93.6477 20.9631V19.9631H93.057L92.7719 20.4805L93.6477 20.9631ZM93.8608 20.9631H94.8608V19.9631H93.8608V20.9631ZM93.8608 23H92.8608V24H93.8608V23ZM96.3494 23V24H97.3494V23H96.3494ZM96.3494 5.54545H97.3494V4.54545H96.3494V5.54545ZM93.8011 5.54545V4.54545H92.8011V5.54545H93.8011ZM93.8011 12.0312V13.0312H94.8011V12.0312H93.8011ZM93.6477 12.0312L92.7784 12.5254L93.0659 13.0312H93.6477V12.0312ZM89.8636 24.2557C91.2811 24.2557 92.3316 23.8158 93.0999 23.2057C93.848 22.6115 94.2746 21.8975 94.5236 21.4457L92.7719 20.4805C92.5606 20.8639 92.2884 21.2961 91.856 21.6395C91.4439 21.9668 90.8325 22.2557 89.8636 22.2557V24.2557ZM93.6477 21.9631H93.8608V19.9631H93.6477V21.9631ZM92.8608 20.9631V23H94.8608V20.9631H92.8608ZM93.8608 24H96.3494V22H93.8608V24ZM97.3494 23V5.54545H95.3494V23H97.3494ZM96.3494 4.54545H93.8011V6.54545H96.3494V4.54545ZM92.8011 5.54545V12.0312H94.8011V5.54545H92.8011ZM93.8011 11.0312H93.6477V13.0312H93.8011V11.0312ZM94.5171 11.5371C94.2836 11.1263 93.8741 10.406 93.1371 9.8059C92.3752 9.18544 91.3243 8.73864 89.8807 8.73864V10.7386C90.8746 10.7386 91.4771 11.0333 91.8742 11.3567C92.2964 11.7005 92.5517 12.1266 92.7784 12.5254L94.5171 11.5371ZM89.8807 8.73864C88.0185 8.73864 86.3623 9.48275 85.1872 10.8719C84.0232 12.2479 83.392 14.1807 83.392 16.4801H85.392C85.392 14.5352 85.9243 13.0973 86.7141 12.1636C87.4928 11.2431 88.5809 10.7386 89.8807 10.7386V8.73864ZM83.392 16.4801C83.392 18.772 84.0128 20.7112 85.1676 22.0966C86.3347 23.4969 87.988 24.2557 89.8636 24.2557V22.2557C88.5603 22.2557 87.4778 21.7445 86.7039 20.8161C85.9175 19.8726 85.392 18.4241 85.392 16.4801H83.392ZM90.4261 20.0824C89.6266 20.0824 89.0622 19.7508 88.6617 19.1791C88.2345 18.5693 87.9659 17.6341 87.9659 16.4545H85.9659C85.9659 17.9 86.2896 19.2787 87.0237 20.3266C87.7844 21.4126 88.9501 22.0824 90.4261 22.0824V20.0824ZM87.9659 16.4545C87.9659 15.2853 88.2291 14.3734 88.6483 13.7833C89.0389 13.2335 89.6006 12.9034 90.4261 12.9034V10.9034C88.9505 10.9034 87.7821 11.5491 87.0178 12.6251C86.2822 13.6607 85.9659 15.0244 85.9659 16.4545H87.9659ZM90.4261 12.9034C91.2286 12.9034 91.7772 13.2122 92.1592 13.7396C92.5706 14.3076 92.8438 15.2136 92.8438 16.4545H94.8438C94.8438 14.9597 94.5203 13.5901 93.779 12.5665C93.0083 11.5023 91.8481 10.9034 90.4261 10.9034V12.9034ZM92.8438 16.4545C92.8438 17.7008 92.5655 18.6309 92.1453 19.2202C91.7524 19.7713 91.2005 20.0824 90.4261 20.0824V22.0824C91.8506 22.0824 93.0076 21.4559 93.7738 20.3813C94.5126 19.345 94.8438 17.9611 94.8438 16.4545H92.8438ZM105.501 24.2642C107.604 24.2642 109.408 23.4867 110.679 22.0766C111.94 20.6766 112.603 18.7342 112.603 16.5142H110.603C110.603 18.3425 110.06 19.7751 109.193 20.738C108.334 21.6909 107.088 22.2642 105.501 22.2642V24.2642ZM112.603 16.5142C112.603 14.2829 111.941 12.3342 110.68 10.9304C109.409 9.51628 107.604 8.73864 105.501 8.73864V10.7386C107.088 10.7386 108.334 11.3118 109.192 12.267C110.059 13.2326 110.603 14.6716 110.603 16.5142H112.603ZM105.501 8.73864C103.397 8.73864 101.592 9.51628 100.322 10.9304C99.0607 12.3342 98.3984 14.2829 98.3984 16.5142H100.398C100.398 14.6716 100.942 13.2326 101.81 12.267C102.668 11.3118 103.914 10.7386 105.501 10.7386V8.73864ZM98.3984 16.5142C98.3984 18.7342 99.0615 20.6766 100.323 22.0766C101.593 23.4867 103.398 24.2642 105.501 24.2642V22.2642C103.914 22.2642 102.667 21.6909 101.809 20.738C100.941 19.7751 100.398 18.3425 100.398 16.5142H98.3984ZM105.509 20.125C104.641 20.125 104.06 19.7679 103.658 19.1884C103.227 18.5669 102.972 17.6327 102.972 16.5057H100.972C100.972 17.8928 101.28 19.2683 102.014 20.3279C102.778 21.4295 103.965 22.125 105.509 22.125V20.125ZM102.972 16.5057C102.972 15.3834 103.227 14.4434 103.66 13.8152C104.064 13.2286 104.646 12.8693 105.509 12.8693V10.8693C103.96 10.8693 102.774 11.5754 102.013 12.6805C101.28 13.7441 100.972 15.1223 100.972 16.5057H102.972ZM105.509 12.8693C106.361 12.8693 106.94 13.2262 107.343 13.8138C107.774 14.4426 108.029 15.3835 108.029 16.5057H110.029C110.029 15.1222 109.721 13.7449 108.992 12.682C108.234 11.5777 107.052 10.8693 105.509 10.8693V12.8693ZM108.029 16.5057C108.029 17.6327 107.774 18.5677 107.344 19.1898C106.944 19.7703 106.366 20.125 105.509 20.125V22.125C107.047 22.125 108.23 21.4272 108.99 20.3265C109.722 19.2675 110.029 17.8929 110.029 16.5057H108.029Z" fill="#1B4FA6"/>
<path d="M56.4858 23.1875C57.4915 23.1875 58.3523 22.3523 58.3608 21.3125C58.3523 20.2898 57.4915 19.4545 56.4858 19.4545C55.446 19.4545 54.6023 20.2898 54.6108 21.3125C54.6023 22.3523 55.446 23.1875 56.4858 23.1875Z" fill="#8B8888"/>
<path d="M1.05682 7.8125H6.49432V23H9.11932V7.8125H14.5653V5.54545H1.05682V7.8125ZM19.3743 23.2898C21.5391 23.2898 22.7578 22.1903 23.2436 21.2102H23.3459V23H25.8345V14.3068C25.8345 10.4972 22.8345 9.73864 20.755 9.73864C18.3857 9.73864 16.2038 10.6932 15.3516 13.0795L17.7464 13.625C18.1214 12.696 19.076 11.8011 20.7891 11.8011C22.4339 11.8011 23.2777 12.6619 23.2777 14.1449V14.2045C23.2777 15.1335 22.3232 15.1165 19.9709 15.3892C17.4908 15.679 14.951 16.3267 14.951 19.3011C14.951 21.875 16.8857 23.2898 19.3743 23.2898ZM19.9283 21.2443C18.4879 21.2443 17.4482 20.5966 17.4482 19.3352C17.4482 17.9716 18.6584 17.4858 20.1328 17.2898C20.9595 17.179 22.9197 16.9574 23.2862 16.5909V18.2784C23.2862 19.8295 22.0504 21.2443 19.9283 21.2443ZM39.0384 13.1051C38.5099 11.0682 36.9162 9.73864 34.0866 9.73864C31.1293 9.73864 29.0327 11.2983 29.0327 13.6165C29.0327 15.4744 30.1577 16.7102 32.6122 17.2557L34.8281 17.7415C36.0895 18.0227 36.6776 18.5852 36.6776 19.4034C36.6776 20.4176 35.5952 21.2102 33.9247 21.2102C32.3991 21.2102 31.419 20.554 31.1122 19.267L28.6491 19.642C29.0753 21.9602 31.0014 23.2642 33.9418 23.2642C37.1037 23.2642 39.294 21.5852 39.294 19.2159C39.294 17.3665 38.1179 16.2244 35.7145 15.6705L33.6349 15.1932C32.1946 14.8523 31.5724 14.3665 31.581 13.4801C31.5724 12.4744 32.6634 11.7585 34.1122 11.7585C35.6974 11.7585 36.4304 12.6364 36.7287 13.5142L39.0384 13.1051ZM42.0959 23H44.6442V18.3551L45.9141 17.0852L50.3629 23H53.4908L47.8317 15.5256L53.1328 9.90909H50.0817L44.8658 15.4489H44.6442V5.54545H42.0959V23Z" fill="black"/>
</svg>
